<svg id="Layer_1" data-name="Layer 1" xmlns="http://www.w3.org/2000/svg" viewBox="0 0 926.97 875.43"><defs><style>.cls-1{fill:#c69c6d;}.cls-2{fill:#333;}.cls-3{fill:#ffce39;}.cls-4{fill:#001fd6;}.cls-5{fill:#c51000;}</style></defs><title>kapitbisig-logo</title><g id="Vtb5cO.tif"><path class="cls-1" d="M469.15,255.33c5,7.21,15.67,7.89,21.07,1,4-5.13,2.7-11.48-1.53-18.92-9.17-16.12-18.14-32.35-27.4-48.41C440.72,153.3,420,117.71,399.43,82c-3.07-5.34-7.87-11.29-7.46-16.63.54-7,1.28-17.54,8.66-20.69,3.63-1.55,14,1.8,18.48,5.7,5.94,5.21,9.47,13.32,13.61,20.42Q474,141.54,515.08,212.36c3.08,5.31,5.23,12,9.81,15.36,4.11,3,12.29,4.61,16.22,2.42,3.78-2.09,6.72-10.27,5.87-15-1.22-6.74-6.09-12.89-9.68-19.13-22.63-39.27-45.5-78.4-67.92-117.78-6.44-11.32-17.18-25.3-.53-34.79,16.35-9.32,23.7,6.77,30.28,17.89,25.17,42.55,49.67,85.49,74.5,128.24,4.13,7.11,7.56,15.13,13.3,20.66,2.5,2.42,5.31,2.09,8.41,1.83a14,14,0,0,0,10.47-6.14c2-3.07,4.07-5.66,3.29-9.77-1.45-7.67-7.42-14.49-11.47-21.66-13.16-23.33-26.51-46.55-39.34-70.05-2.22-4.06-8.48-11.42-9.66-16.73,17.2-8.16,27.86,7.27,33,15.9Q612.58,155.29,642,207.89c9.49,17,17.72,34.75,25.79,52.5s8.11,36.3.37,54.1c-6.7,15.4-1.62,25,4.47,41.19s5,3,14,25c-30.47,16.74-85.69,45-115.06,62.09-13.78-15.48-23-32.75-37.21-39.78-13.4-6.61-32.41-.74-48.46-3.39-18.06-3-37.34-6.2-52.92-15-30.46-17.1-58.73-38.1-87.85-57.58a48,48,0,0,1-6.87-6.21c-8.07-8.1-13-19.14-4.39-27.16,6.09-5.7,18.09-7,27.33-6.71,6.31.21,12.5,6.46,18.57,10.28,10.47,6.59,20.13,15.09,31.42,19.49,7.47,2.91,20.49,3.45,25.07-1,6-5.89,8.38-17.83,8.1-27-.23-7.43-6.38-14.86-10.47-22-20.54-35.72-41.31-71.32-61.92-107-5.15-8.91-10.28-17.86-14.9-27.05-5-9.92-6.87-20.57,4.05-27.45,12.05-7.59,19.41,1.41,24.78,10.53,22,37.28,43.27,75,65.27,112.22C456.78,237.49,463.12,246.58,469.15,255.33Z" transform="translate(0)"/><path class="cls-2" d="M914.63,691.68,920.4,698a23.8,23.8,0,0,1,5.49,9.73,31.28,31.28,0,0,1,1,6.11,23.7,23.7,0,0,1-6.13,17.8c-5.49,6-13.09,12.83-18.33,15.65a7.93,7.93,0,0,0-1.8,1.35c-6.53,6.52-1.45,11.4-2,21.07-1.68,28.83-14.86,50.24-43.7,52.25-9.36.65-28.54.46-35.3.75-1,.05-4.2,53.27-105.86,51.9h-.18c-32.89,1.73-65.94.26-98.91.47-37.73.23-71-10.79-98.18-37.81-4.36-4.33-8.82-9.15-14.2-11.73-10.3-4.93-22.18-5.28-24.9,8.11-4.63,22.8-20.66,22.18-37.62,22.17-105.26-.07-202.29-.1-307.69-.11-6.93,0-14.3-4.47-18.44-10.4a15.89,15.89,0,0,0-12.83-6.74c-8.27-.1-17.71,3-27.78,1.93-12.82-1.35-24.42-13.41-25.89-26.22C44.7,792.92,36,793.37,24.75,785.33c-28.53-20.45-30.92-37.1-14.7-69.09,3.13-6.16,6.18-12.35,7.71-15.45a3,3,0,0,0,0-2.6c-12-25.31-32.52-51.11,25.34-137.69a430.23,430.23,0,0,0,32.54-57.63C94,463.55,121.41,436.3,161.89,424c5.89-1.79,12.27-3,17.38-6.15,11.69-7.26,15.17-21.75,5.15-30.61-15.88-14-10.59-26.59-2.24-40.93,23.86-41,47.4-82.14,71.08-123.22C292.71,154.69,339.93,55.8,372.19,11.63c8.39-11.49,24.46-15.21,36.6-7.79,2.85,1.74,27.63,21.85,45.25,13.45C481,4.46,501.37,11.5,517.53,36c5.2,7.86,9.69,16.2,14.72,24.87a3.1,3.1,0,0,0,3.44,1.45c10.32-2.69,19.48-6.53,28.47-6.16a45.22,45.22,0,0,1,12.32,2.58,52,52,0,0,1,30.41,26.78c6.76,14,13.49,29.34,21.47,42,18.13,28.74,33.83,59,51.19,88.25,19.34,32.57,25.38,66.92,17.57,104.11-1.82,8.65-2.33,19,.91,26.8,2.39,5.73,13.63,13.34,17.89,11.79,21.85-8,27.62,8.34,35.06,21.15C806.1,474.48,848.39,548.91,902.74,643a13.85,13.85,0,0,1,.19,13.55l-4,7.42a13.43,13.43,0,0,0,3.3,16.78ZM780.28,828.48c-6.72-2.57-13.42-5.46-20.23-5.76-25.72-1.13-51.52-.41-77.29-.63-7.18-.05-14.7.32-21.38-1.72-3.81-1.16-8.52-6.71-8.68-10.46s4.1-10.18,7.65-11.21c7.72-2.23,16.22-2.29,24.4-2.32,48.45-.22,96.89-.17,145.34-.25,7.21,0,16.5-.71,22.54-3.45,7.56-3.42,16.47-7.26,17.9-14,2.43-11.43-8.87-14.39-18.61-15.16-7.18-.56-14.42-.48-21.63-.49-40.2-.06-80.4.28-120.6-.26-14.54-.2-37,5-37-16-.07-19.94,21.91-13.4,35.1-13.58,50.5-.67,101-.23,151.52-.34,9.26,0,19.15,1.15,27.57-1.7,6.4-2.17,15.47-10.15,15.15-15-.39-5.94-8.38-13.56-14.85-16.34-7.08-3-16.18-1.73-24.4-1.74-53.6-.1-107.2.19-160.8-.2-11.55-.08-29.1,3.45-27.62-15,1.17-14.6,17.33-11.28,28.08-11.37,43.29-.33,86.58.06,129.87-.22,9.16-.06,19-.06,27.19-3.44,5.35-2.22,10.51-10.13,11.35-16.11.53-3.76-6.33-10.92-11.22-12.57-8.51-2.87-18.05-3.52-27.18-3.58-51.53-.37-103.07-.17-154.61-.45-11.79-.06-23.11-2.35-26.55-16.22-3.57-14.33,3.25-23.67,15.5-30.11,13.66-7.18,27.7-13.78,40.78-21.91,15.72-9.76,20-21.79,13-33.06-8.69-14.11-20.38-10.82-32.36-5-26,12.53-51.6,25.79-78,37.31-28.66,12.51-51.91,32.65-65.17,59.18-13.73,27.49-31.33,41.56-61.38,41.23-1.27,0-2.56,1.76-4.14,3.37a3,3,0,0,0-.9,2.17V790.57a3.1,3.1,0,0,0,2.79,3.08c8.08.81,14.64.74,20.41,2.85,10.05,3.68,21.84,7,28.65,14.32,21.76,23.55,47.57,34.89,79.39,34.66,49.47-.36,99,.21,148.43-.33,8.42-.09,14.92-2.51,23.33-4.47C783,840.37,783.87,829.85,780.28,828.48ZM481,262.64a7,7,0,0,1-8.55-2.5c-7-10.22-14.63-20.9-21.28-32.17-22-37.26-43.3-74.94-65.27-112.22-5.37-9.12-12.73-18.12-24.78-10.53-10.92,6.88-9,17.53-4.05,27.45,4.62,9.19,9.75,18.14,14.9,27.05,20.61,35.69,41.38,71.29,61.92,107,4.09,7.1,10.24,14.53,10.47,22,.28,9.21-2.09,21.15-8.1,27-4.58,4.48-17.6,3.94-25.07,1-11.29-4.4-20.95-12.9-31.42-19.49-6.07-3.82-12.26-10.07-18.57-10.28-9.24-.31-21.24,1-27.33,6.71-8.58,8-3.68,19.06,4.39,27.16a48,48,0,0,0,6.87,6.21c29.12,19.48,57.39,40.48,87.85,57.58,15.58,8.75,34.86,12,52.92,15C502,402.25,521,396.38,534.36,403c13.66,6.74,22.67,22.9,35.53,37.86a3.09,3.09,0,0,0,3.89.64c28.65-16.74,57.67-34.31,87.37-50.63,15.15-8.32,18.69-18.36,9.35-32.43-9.55-14.4-9-28.54-2.34-43.94,7.74-17.8,7.72-36.32-.37-54.1s-16.3-35.49-25.79-52.5q-29.37-52.6-60.35-104.31c-4.88-8.16-12.89-20.61-28.28-15a3.06,3.06,0,0,0-1.83,4c1.74,4.33,4.93,8.53,6.75,11.86,12.83,23.5,26.18,46.72,39.34,70.05,4,7.17,10,14,11.47,21.66,1.1,5.8,1.44,9.49-3.72,14.28a12.09,12.09,0,0,1-6,3c-5.78,1.11-8.77.37-12.48-3.21-5.74-5.53-9.17-13.55-13.3-20.66-24.83-42.75-49.33-85.69-74.5-128.24-6.58-11.12-13.93-27.21-30.28-17.89-16.65,9.49-5.91,23.47.53,34.79C491.8,117.58,514.67,156.71,537.3,196c3.59,6.24,8.46,12.39,9.68,19.13.85,4.76,2.82,10.92-5.87,15-7.48,3.54-12.11.57-16.22-2.42-4.58-3.33-6.73-10.05-9.81-15.36Q473.89,141.59,432.72,70.8c-4.14-7.1-7.67-15.21-13.61-20.42-2-1.74-5.1-2.62-8.29-3a16.34,16.34,0,0,0-17.7,11.68A31.24,31.24,0,0,0,392,65.37c-.41,5.34,4.39,11.29,7.46,16.63,20.54,35.71,41.29,71.3,61.86,107,9.26,16.06,18.23,32.29,27.4,48.41C494.88,248.28,494.83,256.84,481,262.64ZM33.9,659.31a3.1,3.1,0,0,0,4.57-.23c5.6-6.78,11-12.54,15-19.17,13.24-22.06,25.32-44.82,38.77-66.74,6-9.85,11.41-27.19,26.32-19.74,18.69,9.33,3.86,23.67-1.83,33.89-25.52,45.91-52.15,91.2-78.56,136.61-7.12,12.24-14,26.84.2,35.61,16.43,10.12,22.8-6.95,29.3-18.11,22.31-38.26,43.86-77,66.57-115,5.93-9.92,14.41-18.3,21.54-26.68a3.09,3.09,0,0,1,4-.63c17.51,11,10.42,21.66,4.37,32.11-28.39,49-57.17,97.81-85.07,147.11C72.44,790.06,59.49,803,74.38,817c9.41,8.85,21.45,1.1,34.21-21.09C135.8,748.57,162.54,701,190.34,654c5.65-9.56,11-27.41,26.27-19.12,14.92,8.09,3.67,21.63-1.31,32.42-1.72,3.72-4.28,7-6.32,10.62-20.46,35.76-41,71.45-61.25,107.36-6.38,11.34-17.44,24.88-1.45,35.15,16.93,10.87,23.38-6.19,29.86-17,15.94-26.46,30.7-53.62,46.23-80.32,12.43-21.36,24.38-43.1,38.51-63.3,4.38-6.26,16.61-12.6,22.71-10.71,8,2.47,15.47,12.12,19.36,20.47,3.16,6.76,1,16.16.67,24.37-.45,10.28-2.72,20.64-1.9,30.77,1,12.68,5.46,25.58,20.32,27.26,16.1,1.81,20.11-11.19,23.09-23.7a59.76,59.76,0,0,0,1.22-9.18c2.08-26.7,3.76-53.43,6.23-80.09,3.08-33.17-5.36-64-22.21-91.59-12.35-20.22-19.23-37.69-3.21-58.89,6.29-8.32,3.86-17.39-6.45-23.24-31.44-17.85-62.71-36-93.25-53.61a3.11,3.11,0,0,0-3.21.09c-4.14,2.62-7.17,3.77-8.19,5.88-10.29,21.4-27.38,31.17-50.58,35.31-23.47,4.18-40.19,20.52-52.1,40.66q-40.92,69.14-80.62,139C28.79,639.59,22.42,647.6,33.9,659.31ZM538.29,458.45a3.14,3.14,0,0,0,.78-4c-13.19-22.49-13.81-22.58-32.64-23.74-7.2-.45-15.4,1.58-21.49-1.18C418.63,400.68,432.63,397.68,398,471c-4.72,11.14-18.13,24-32.37,18.68-20.57-7.71-22,20.6-10.71,44,8,16.66,15.07,33.78,20.09,51.58,6.62,23.45-3.38,19.45,29.11,19.82,10.35.11,20.67-1,31-.11,16.41,1.41,41.92-4.86,43.46,26.67a3.11,3.11,0,0,0,3.16,3c27.18-.6,17.38,3.55,25.81-6.75,19-23.15,36.27-47.64,54.3-71.77a3.06,3.06,0,0,0,.23-3.33c-9.18-16.76-16.92-33-26.81-47.81C523.82,487.82,520.31,472.54,538.29,458.45Zm187.79-66.28a3.12,3.12,0,0,0-4-1.25c-10,4.73-16.9,7.6-23.33,11.23-33.08,18.7-66,37.72-99,56.47-45.12,25.59-46.48,31.74-16,74.07,1.88,2.6,3.52,5.37,5.06,7.9a3.11,3.11,0,0,0,3.56,1.33c6.64-2,11.1-3,15.12-5,24.1-11.52,47.59-24.43,72.19-34.73,28.64-12,55.79-3.53,67.4,18.61,12.3,23.47,2.92,52.66-22.26,69.39-4.71,3.13-9.39,6.31-14.74,9.94a3.09,3.09,0,0,0,1.24,5.62c36.51,6,104.85,4.29,131-4.2a3.1,3.1,0,0,0,1.75-4.49ZM368,459a3.11,3.11,0,0,0,4.14-1.11c7.54-12.38,13.11-21.32,18.43-30.41,14.44-24.73,14.23-26.17-8.42-41.8-18.64-12.87-37.93-24.82-56.22-38.16C299,328,292,301,306.8,278.19S350.32,249.4,378,263.3c4.21,2.11,8.47,4.12,12.74,6.11a3.09,3.09,0,0,0,4.14-4.06c-17.68-39.71-35.58-77.5-60.48-110.07a3.11,3.11,0,0,0-3.45-1.05c-3.52,1.17-4.6,1.29-4.94,1.85q-57.17,96.93-114.13,194c-8,13.64.39,20.53,11.31,26.77,29.49,16.86,58.65,34.27,88.13,51.12C329.19,438.15,347.37,447.79,368,459ZM202,823.31c8.62,2.62,11.47,4.3,16.75,2.46,55.28-19.2,114.9-22,171-5.26,46.84,14,57.7,4.93,57.62-18.35-.14-42.18.31-84.35.19-126.53-.12-43.39-2.37-44.66-45.57-42.58-17.07.83-23.71,7.82-24.37,24.24-1.08,26.7-2,53.54-5.44,80-3.71,28.12-25.49,45.89-50.54,44.61-24.16-1.24-44.8-22.46-47.21-48.94-.86-9.43-1-18.93-1.5-28.4a3.1,3.1,0,0,0-5.77-1.39L200.2,818.78A3.11,3.11,0,0,0,202,823.31Z" transform="translate(0)"/><path class="cls-1" d="M758.3,845.15c-49.47.54-99,0-148.43.33-31.82.23-57.63-11.11-79.39-34.66-6.81-7.37-18.6-10.64-28.65-14.32-5.63-2.06-12-2-19.85-2.8a3.71,3.71,0,0,1-3.35-3.7V670.13a3.71,3.71,0,0,1,3.94-3.71l1.1.06c30.05.33,47.65-13.74,61.38-41.23,13.26-26.53,36.51-46.67,65.17-59.18,26.4-11.52,52-24.78,78-37.31,12-5.79,23.67-9.08,32.36,5,6.94,11.27,2.69,23.3-13,33.06-13.08,8.13-27.12,14.73-40.78,21.91-12.25,6.44-19.07,15.78-15.5,30.11,3.44,13.87,14.76,16.16,26.55,16.22,51.54.28,103.08.08,154.61.45,9.13.06,18.67.71,27.18,3.58,4.89,1.65,11.75,8.81,11.22,12.57-.84,6-6,13.89-11.35,16.11-8.16,3.38-18,3.38-27.19,3.44-43.29.28-86.58-.11-129.87.22-10.75.09-26.91-3.23-28.08,11.37-1.48,18.5,16.07,15,27.62,15,53.6.39,107.2.1,160.8.2,8.22,0,17.32-1.3,24.4,1.74,6.47,2.78,14.46,10.4,14.85,16.34.32,4.85-8.75,12.83-15.15,15-8.42,2.85-18.31,1.68-27.57,1.7-50.5.11-101-.33-151.52.34-13.19.18-35.17-6.36-35.1,13.58.07,21,22.48,15.83,37,16,40.2.54,80.4.2,120.6.26,7.21,0,14.45-.07,21.63.49,9.74.77,21,3.73,18.61,15.16-1.43,6.7-3.34,11.54-10.9,15-6,2.74-22.33,2.44-29.54,2.45-48.45.08-96.89,0-145.34.25-8.18,0-16.68.09-24.4,2.32-3.55,1-7.81,7.43-7.65,11.21s4.87,9.3,8.68,10.46c6.68,2,14.2,1.67,21.38,1.72,25.77.22,51.57-.5,77.29.63,6.93.31,19.58,0,26.58,0,.75,0,1.23,1.09,1.54,2.76A16.06,16.06,0,0,1,774,844.17C768.23,844.8,762.12,845.11,758.3,845.15Z" transform="translate(0)"/><path class="cls-1" d="M36.39,661.65c-14.82-13-7.86-21.6-3.63-29q39.81-69.78,80.62-139C125.29,473.5,142,457.16,165.48,453c23.2-4.14,40.29-13.91,50.58-35.31,1.14-2.37,4.82-3.52,9.75-6.92,31.07,17.89,62.89,36.39,94.9,54.56,10.31,5.85,12.74,14.92,6.45,23.24-16,21.2-9.14,38.67,3.21,58.89,16.85,27.6,25.29,58.42,22.21,91.59-2.47,26.66-4.15,53.39-6.23,80.09a59.76,59.76,0,0,1-1.22,9.18c-3,12.51-7,25.51-23.09,23.7-14.86-1.68-19.3-14.58-20.32-27.26-.82-10.13,1.45-20.49,1.9-30.77.35-8.21,2.49-17.61-.67-24.37-3.89-8.35-11.38-18-19.36-20.47-6.1-1.89-18.33,4.45-22.71,10.71-14.13,20.2-26.08,41.94-38.51,63.3-15.53,26.7-30.29,53.86-46.23,80.32-6.48,10.77-12.93,27.83-29.86,17-16-10.27-4.93-23.81,1.45-35.15,20.21-35.91,40.79-71.6,61.25-107.36,2-3.58,4.6-6.9,6.32-10.62,5-10.79,16.23-24.33,1.31-32.42-15.29-8.29-20.62,9.56-26.27,19.12-27.8,47-54.54,94.58-81.75,141.91C95.83,818.09,83.79,825.84,74.38,817c-14.89-14-1.94-26.93,4.67-38.62,27.9-49.3,56.68-98.09,85.07-147.11,6.3-10.88,13.73-22-6.68-33.47-7.44,9.05-16.81,18-23.2,28.67-22.71,38-44.26,76.71-66.57,115-6.5,11.16-12.87,28.23-29.3,18.11-14.24-8.77-7.32-23.37-.2-35.61,26.41-45.41,53-90.7,78.56-136.61,5.69-10.22,20.52-24.56,1.83-33.89-14.91-7.45-20.29,9.89-26.32,19.74-13.45,21.92-25.53,44.68-38.77,66.74C49,647.36,42.71,653.71,36.39,661.65Z" transform="translate(0)"/><path class="cls-3" d="M724.65,389.69C766.27,462,812.87,542.92,852.81,612.31c-24,1.33-113.64,0-149-7.94,8.14-5.49,14.51-9.86,20.95-14.14,25.18-16.73,34.56-45.92,22.26-69.39-11.61-22.14-38.76-30.59-67.4-18.61-24.6,10.3-48.09,23.21-72.19,34.73-4.46,2.14-9.47,3.14-17.41,5.68-1.91-3-3.93-6.62-6.33-9.95-30.51-42.33-29.15-48.48,16-74.07,33-18.75,66-37.77,99-56.47C705.7,398.22,713.16,395.17,724.65,389.69Z" transform="translate(0)"/><path class="cls-4" d="M370.57,460.45c-21.67-11.86-40.64-21.87-59.25-32.51-29.48-16.85-58.64-34.26-88.13-51.12-10.92-6.24-19.3-13.13-11.31-26.77Q268.79,253,326,156.08c.39-.66,1.82-.71,7-2.57,27.2,35,46.08,76.23,65.2,119.42-6.75-3.2-13.57-6.28-20.24-9.63-27.68-13.9-56.36-7.94-71.2,14.89S299,328,325.89,347.55c18.29,13.34,37.58,25.29,56.22,38.16,22.65,15.63,22.86,17.07,8.42,41.8C384.86,437.21,378.89,446.73,370.57,460.45Z" transform="translate(0)"/><path class="cls-5" d="M198.66,821.45c24.3-42,46.49-80.35,68.68-118.68a3.57,3.57,0,0,1,3.27-1.86,2.27,2.27,0,0,1,1,.28,2.5,2.5,0,0,1,1.2,2.08c.51,9.89.66,19.82,1.56,29.68,2.41,26.48,23.05,47.7,47.21,48.94,25.05,1.28,46.83-16.49,50.54-44.61,3.48-26.45,4.36-53.29,5.44-80,.66-16.42,7.3-23.41,24.37-24.24,43.2-2.08,45.45-.81,45.57,42.58.12,42.18-.33,84.35-.19,126.53.05,15.87-5,25.13-23,25-69.94-.53-139.9-.32-209.85-.6-3.69,0-7.37-1.83-15.39-4.09A.69.69,0,0,1,198.66,821.45Z" transform="translate(0)"/></g></svg>